<?xml version="1.0" encoding="UTF-8" standalone="yes"?>
<svg xmlns="http://www.w3.org/2000/svg" xmlns:xlink="http://www.w3.org/1999/xlink" width="694.930pt" height="246.760pt" version="1.1" viewBox="617.002 -925.111 694.930 246.760">
  <!--
	Exported with Concepts: Smarter Sketching
	Version: 4569 on iOS 26.0
	https://concepts.app/
	-->
  <title>7C7C83B4-DDF4-4E8B-881D-EE85629F1D1B</title>
  <desc>Drawing exported from Concepts: Smarter Sketching</desc>
  <defs></defs>
  <g id="New_Layer_1" opacity="1.000">
    <path id="STROKE_8805654a-1411-4108-9165-fb8ffe2b7422" opacity="1.000" fill="none" stroke="#ffffff" stroke-width="16.242" stroke-opacity="1.000" stroke-linecap="round" stroke-linejoin="round" d="M 641.438 -756.827 Q 640.888 -755.802 636.192 -754.880 Q 634.914 -754.808 638.634 -766.861 Q 642.355 -778.913 644.560 -785.995 Q 646.764 -793.077 648.467 -799.659 Q 650.170 -806.242 651.061 -809.582 Q 651.952 -812.923 652.453 -815.131 Q 652.954 -817.339 656.006 -828.825 Q 659.059 -840.312 661.608 -848.252 Q 664.157 -856.193 665.450 -859.412 Q 666.743 -862.631 669.346 -870.493 Q 671.949 -878.355 673.695 -883.214 Q 675.441 -888.072 677.400 -903.157 Q 677.123 -903.167 678.540 -888.726 Q 679.958 -874.286 680.742 -866.564 Q 681.526 -858.842 682.017 -854.881 Q 682.508 -850.919 683.431 -845.427 Q 684.354 -839.934 685.007 -836.790 Q 685.660 -833.646 687.012 -827.585 Q 688.364 -821.525 691.574 -808.283 Q 694.784 -795.041 697.024 -786.610 Q 699.263 -778.179 701.764 -771.079 Q 704.266 -763.980 707.734 -757.588 Q 709.418 -756.847 711.064 -763.968 Q 712.710 -771.088 713.952 -779.863 Q 715.195 -788.637 715.827 -795.407 Q 716.459 -802.177 717.138 -816.657 Q 717.818 -831.136 718.405 -840.419 Q 718.992 -849.702 719.453 -854.403 Q 719.913 -859.105 720.752 -863.731 Q 721.590 -868.357 722.239 -870.981 Q 722.888 -873.605 723.372 -874.753 Q 723.856 -875.900 724.554 -876.313 Q 725.253 -876.726 726.244 -875.237 Q 727.235 -873.749 728.300 -868.437 Q 729.364 -863.126 729.873 -859.489 Q 730.382 -855.852 730.894 -851.176 Q 731.406 -846.501 732.043 -839.795 Q 732.680 -833.089 733.105 -829.232 Q 733.531 -825.375 733.708 -822.665 Q 733.885 -819.954 734.988 -809.642 Q 736.090 -799.330 736.757 -793.952 Q 737.423 -788.574 738.750 -780.045 Q 740.076 -771.517 741.681 -764.976 Q 743.285 -758.435 745.515 -753.695 Q 745.839 -753.646 747.377 -754.118 "></path>
    <path id="STROKE_f327e180-e810-4cd9-bc14-e8b8bf28d558" opacity="1.000" fill="none" stroke="#ffffff" stroke-width="17.814" stroke-opacity="1.000" stroke-linecap="round" stroke-linejoin="round" d="M 784.523 -772.568 Q 782.670 -772.535 772.508 -771.595 Q 773.677 -770.216 773.518 -770.425 Q 773.358 -770.633 775.384 -770.052 Q 777.410 -769.471 781.125 -769.345 Q 784.839 -769.218 789.493 -769.184 Q 794.146 -769.151 799.716 -770.736 Q 805.286 -772.322 808.124 -773.088 Q 810.961 -773.855 813.974 -775.628 Q 816.987 -777.401 818.545 -778.898 Q 820.103 -780.394 821.099 -781.666 Q 822.095 -782.937 822.719 -784.784 Q 823.343 -786.630 823.425 -789.610 Q 823.508 -792.590 822.099 -796.353 Q 820.691 -800.115 818.019 -803.612 Q 815.347 -807.109 812.744 -809.063 Q 810.140 -811.018 808.033 -812.103 Q 805.926 -813.188 803.430 -813.373 Q 800.934 -813.557 798.772 -812.975 Q 796.609 -812.393 793.515 -810.375 Q 790.421 -808.357 787.136 -803.909 Q 783.850 -799.462 781.774 -795.192 Q 779.697 -790.923 778.767 -788.222 Q 777.838 -785.521 777.122 -781.684 Q 776.407 -777.847 776.328 -772.884 Q 776.248 -767.922 776.614 -764.116 Q 776.979 -760.310 778.983 -756.287 Q 780.988 -752.265 783.695 -749.346 Q 786.402 -746.428 791.232 -743.600 Q 796.063 -740.772 801.541 -739.523 Q 807.018 -738.275 811.054 -738.285 Q 815.090 -738.296 817.386 -738.323 Q 819.683 -738.350 822.694 -739.503 Q 825.705 -740.656 830.312 -743.405 Q 834.918 -746.153 837.244 -748.141 Q 839.570 -750.128 843.078 -750.310 "></path>
    <path id="STROKE_1e51b1fe-a0d3-4bb6-a411-eddf5447a7af" opacity="1.000" fill="none" stroke="#ffffff" stroke-width="20.497" stroke-opacity="1.000" stroke-linecap="round" stroke-linejoin="round" d="M 892.578 -891.901 Q 892.530 -893.681 890.082 -896.471 Q 890.576 -896.320 887.645 -869.155 Q 884.713 -841.989 883.264 -827.585 Q 881.815 -813.180 881.350 -806.989 Q 880.885 -800.797 880.612 -796.502 Q 880.340 -792.207 879.904 -783.668 Q 879.467 -775.129 874.470 -738.207 Q 875.264 -737.897 881.409 -744.470 "></path>
    <path id="STROKE_48f5c584-4e5c-4bfd-aa38-5b14d9f82b5b" opacity="1.000" fill="none" stroke="#ffffff" stroke-width="19.859" stroke-opacity="1.000" stroke-linecap="round" stroke-linejoin="round" d="M 929.640 -815.054 Q 929.510 -815.343 928.823 -812.221 Q 928.137 -809.099 928.903 -797.729 Q 929.669 -786.359 930.216 -780.335 Q 930.764 -774.312 930.949 -771.456 Q 931.135 -768.600 931.762 -760.580 Q 932.389 -752.559 935.394 -739.646 Q 936.244 -739.921 937.255 -743.201 "></path>
    <path id="STROKE_2ab9944a-fce2-4a89-8fd3-64d8827e92c4" opacity="1.000" fill="none" stroke="#ffffff" stroke-width="20.870" stroke-opacity="1.000" stroke-linecap="round" stroke-linejoin="round" d="M 928.455 -840.952 Q 928.429 -841.679 927.704 -843.836 Q 926.979 -845.992 926.380 -847.566 Q 925.781 -849.140 925.874 -851.319 Q 926.778 -851.685 928.776 -850.582 Q 930.774 -849.479 943.940 -828.341 "></path>
    <path id="STROKE_6425d150-45d1-41d6-ab36-ad264f9d0af5" opacity="1.000" fill="none" stroke="#ffffff" stroke-width="20.262" stroke-opacity="1.000" stroke-linecap="round" stroke-linejoin="round" d="M 999.786 -899.518 Q 999.448 -899.518 995.555 -899.771 Q 994.796 -899.334 994.847 -893.014 Q 994.898 -886.694 994.885 -880.990 Q 994.872 -875.286 994.831 -872.118 Q 994.789 -868.950 994.976 -866.518 Q 995.162 -864.085 994.573 -849.490 Q 993.983 -834.894 993.517 -827.081 Q 993.052 -819.267 992.877 -814.462 Q 992.703 -809.657 992.592 -803.997 Q 992.481 -798.337 992.348 -789.031 Q 992.216 -779.726 992.898 -769.929 Q 993.580 -760.132 996.148 -751.029 Q 997.167 -750.587 999.448 -756.150 "></path>
    <path id="STROKE_53199605-0bac-4cfc-a3d4-857a10bd4cbe" opacity="1.000" fill="none" stroke="#ffffff" stroke-width="18.542" stroke-opacity="1.000" stroke-linecap="round" stroke-linejoin="round" d="M 987.094 -882.422 Q 986.086 -883.102 984.806 -885.337 Q 983.527 -887.572 983.313 -889.227 Q 983.100 -890.881 983.642 -892.102 Q 984.184 -893.323 990.263 -895.134 Q 996.343 -896.945 1000.788 -897.615 Q 1005.234 -898.285 1010.004 -898.493 Q 1014.775 -898.701 1019.183 -898.182 Q 1023.592 -897.663 1027.203 -896.230 Q 1030.814 -894.796 1033.561 -892.662 Q 1036.309 -890.527 1038.633 -886.994 Q 1040.958 -883.460 1041.788 -879.217 Q 1042.618 -874.974 1042.783 -871.966 Q 1042.948 -868.958 1042.819 -866.843 Q 1042.689 -864.728 1041.039 -859.512 Q 1039.388 -854.297 1035.861 -848.574 Q 1032.333 -842.851 1029.986 -839.858 Q 1027.639 -836.865 1026.329 -835.233 Q 1025.020 -833.601 1021.296 -829.698 Q 1017.572 -825.795 1012.865 -821.449 Q 1008.159 -817.102 1003.237 -813.074 Q 998.315 -809.045 988.109 -802.528 Q 988.363 -802.571 990.394 -803.798 "></path>
    <path id="STROKE_0c4ef3c1-a7c5-4336-865c-6bc951d49f80" opacity="1.000" fill="none" stroke="#ffffff" stroke-width="20.536" stroke-opacity="1.000" stroke-linecap="round" stroke-linejoin="round" d="M 1072.302 -905.696 Q 1072.302 -905.696 1072.260 -905.696 Q 1072.218 -905.696 1071.964 -905.696 Q 1071.594 -904.449 1072.560 -896.671 Q 1073.527 -888.893 1073.363 -878.146 Q 1073.199 -867.400 1072.990 -861.882 Q 1072.781 -856.364 1072.219 -853.278 Q 1071.656 -850.193 1070.809 -836.042 Q 1069.961 -821.892 1069.917 -808.241 Q 1069.873 -794.590 1069.820 -788.152 Q 1069.767 -781.714 1069.508 -772.772 Q 1069.250 -763.831 1069.231 -757.596 Q 1069.213 -751.361 1068.906 -748.002 Q 1068.600 -744.642 1068.748 -739.519 Q 1069.129 -739.477 1070.525 -739.900 "></path>
    <path id="STROKE_720abf5c-924a-4582-9477-35f9039f48fe" opacity="1.000" fill="none" stroke="#ffffff" stroke-width="16.154" stroke-opacity="1.000" stroke-linecap="round" stroke-linejoin="round" d="M 1116.218 -827.326 Q 1116.175 -827.756 1115.579 -827.933 Q 1114.984 -828.110 1113.680 -828.598 Q 1112.377 -829.086 1110.802 -823.881 Q 1109.228 -818.675 1108.360 -812.723 Q 1107.492 -806.772 1107.108 -803.553 Q 1106.724 -800.335 1106.453 -795.435 Q 1106.182 -790.536 1106.194 -784.932 Q 1106.206 -779.328 1106.817 -774.893 Q 1107.428 -770.458 1109.483 -766.074 Q 1111.538 -761.689 1114.311 -757.862 Q 1117.085 -754.035 1120.917 -751.104 Q 1124.749 -748.174 1128.203 -746.681 Q 1131.656 -745.187 1134.305 -744.654 Q 1136.953 -744.122 1139.187 -744.435 Q 1141.420 -744.749 1143.895 -746.874 Q 1146.370 -748.999 1149.782 -754.523 Q 1153.194 -760.047 1155.595 -765.218 Q 1157.996 -770.388 1159.403 -773.821 Q 1160.811 -777.254 1162.731 -784.226 Q 1164.652 -791.198 1165.740 -800.306 Q 1166.827 -809.414 1168.172 -825.972 Q 1167.814 -826.047 1164.947 -817.488 Q 1162.080 -808.929 1161.014 -799.462 Q 1159.948 -789.995 1159.828 -783.865 Q 1159.708 -777.734 1159.864 -773.827 Q 1160.020 -769.920 1161.336 -766.547 Q 1162.652 -763.175 1163.961 -761.004 Q 1165.270 -758.834 1166.678 -757.644 Q 1168.085 -756.453 1169.086 -755.837 Q 1170.087 -755.220 1171.887 -755.014 Q 1173.687 -754.807 1175.265 -755.008 Q 1176.843 -755.208 1185.095 -763.682 "></path>
    <path id="STROKE_62110955-1696-45cc-9344-11610d55ea27" opacity="1.000" fill="none" stroke="#ffffff" stroke-width="17.755" stroke-opacity="1.000" stroke-linecap="round" stroke-linejoin="round" d="M 1231.972 -807.606 Q 1232.721 -808.851 1231.230 -811.158 Q 1229.739 -813.466 1228.492 -815.039 Q 1227.246 -816.612 1225.080 -817.279 Q 1222.913 -817.945 1220.668 -818.149 Q 1218.423 -818.354 1215.708 -815.828 Q 1212.993 -813.303 1211.547 -811.625 Q 1210.102 -809.946 1208.143 -805.614 Q 1206.184 -801.282 1205.272 -795.854 Q 1204.360 -790.425 1204.239 -786.819 Q 1204.118 -783.213 1204.637 -780.751 Q 1205.156 -778.288 1207.234 -775.120 Q 1209.312 -771.952 1212.147 -769.716 Q 1214.982 -767.481 1220.298 -766.727 Q 1225.614 -765.973 1229.815 -765.858 Q 1234.015 -765.744 1237.981 -767.599 Q 1241.947 -769.454 1243.713 -770.857 Q 1245.479 -772.261 1247.977 -774.285 Q 1250.476 -776.308 1252.215 -779.455 Q 1253.954 -782.601 1254.493 -785.738 Q 1255.032 -788.875 1254.942 -791.246 Q 1254.851 -793.617 1253.125 -796.033 Q 1251.400 -798.450 1249.610 -799.916 Q 1247.820 -801.381 1245.695 -801.781 Q 1243.570 -802.182 1242.297 -802.154 Q 1241.025 -802.127 1240.338 -800.150 Q 1239.652 -798.173 1239.451 -793.483 Q 1239.250 -788.793 1241.459 -781.827 Q 1243.669 -774.861 1246.246 -769.804 Q 1248.824 -764.748 1250.413 -760.704 Q 1252.003 -756.660 1252.669 -754.499 Q 1253.335 -752.337 1253.508 -748.181 Q 1253.680 -744.024 1253.258 -740.448 Q 1252.836 -736.873 1250.922 -731.290 Q 1249.008 -725.708 1246.654 -721.179 Q 1244.301 -716.649 1240.041 -712.473 Q 1235.780 -708.297 1232.281 -705.929 Q 1228.782 -703.560 1225.634 -702.266 Q 1222.486 -700.971 1219.840 -700.346 Q 1217.194 -699.721 1214.778 -699.425 Q 1212.362 -699.129 1210.415 -699.724 Q 1208.468 -700.319 1206.429 -702.210 Q 1204.391 -704.101 1203.678 -707.766 Q 1202.965 -711.431 1202.985 -714.730 Q 1203.004 -718.029 1204.243 -721.323 Q 1205.482 -724.616 1208.783 -728.255 Q 1212.084 -731.894 1215.433 -734.353 Q 1218.781 -736.813 1225.128 -739.619 Q 1231.474 -742.426 1237.885 -744.155 Q 1244.295 -745.884 1252.439 -747.023 Q 1260.583 -748.162 1268.481 -748.706 Q 1276.379 -749.250 1280.135 -749.155 Q 1283.891 -749.060 1286.351 -748.711 Q 1288.810 -748.363 1291.373 -747.094 "></path>
  </g>
</svg>