<?xml version="1.0" encoding="UTF-8" standalone="yes"?>
<svg xmlns="http://www.w3.org/2000/svg" xmlns:xlink="http://www.w3.org/1999/xlink" width="691.958pt" height="232.652pt" version="1.1" viewBox="1411.317 -1419.849 691.958 232.652">
  <!--
	Exported with Concepts: Smarter Sketching
	Version: 4569 on iOS 26.0
	https://concepts.app/
	-->
  <title>7C7C83B4-DDF4-4E8B-881D-EE85629F1D1B</title>
  <desc>Drawing exported from Concepts: Smarter Sketching</desc>
  <defs></defs>
  <g id="New_Layer_1" opacity="1.000">
    <path id="STROKE_3c7d5bd1-a97f-44bb-bd4c-5232c9c6665f" opacity="1.000" fill="none" stroke="#ffffff" stroke-width="15.434" stroke-opacity="1.000" stroke-linecap="round" stroke-linejoin="round" d="M 1429.107 -1251.255 Q 1428.284 -1251.779 1427.170 -1252.729 Q 1426.056 -1253.679 1425.832 -1256.633 Q 1425.608 -1259.587 1426.459 -1264.458 Q 1427.312 -1269.330 1428.405 -1272.617 Q 1429.499 -1275.904 1432.294 -1288.719 Q 1435.089 -1301.534 1436.749 -1312.501 Q 1438.410 -1323.468 1439.545 -1332.686 Q 1440.681 -1341.904 1441.976 -1351.220 Q 1443.271 -1360.536 1445.227 -1369.890 Q 1447.183 -1379.244 1448.856 -1384.937 Q 1450.530 -1390.630 1452.071 -1394.650 Q 1453.612 -1398.670 1456.034 -1401.275 Q 1457.396 -1400.665 1459.302 -1387.660 Q 1461.208 -1374.656 1462.616 -1363.212 Q 1464.025 -1351.768 1465.550 -1340.277 Q 1467.075 -1328.785 1467.982 -1321.916 Q 1468.890 -1315.046 1470.123 -1308.561 Q 1471.356 -1302.075 1472.046 -1298.529 Q 1472.735 -1294.983 1474.247 -1289.615 Q 1475.759 -1284.248 1477.333 -1279.656 Q 1478.907 -1275.065 1481.102 -1270.647 Q 1483.297 -1266.229 1485.226 -1263.549 Q 1487.154 -1260.869 1488.393 -1259.492 Q 1489.632 -1258.115 1491.124 -1257.630 Q 1492.615 -1257.146 1493.455 -1258.267 Q 1494.294 -1259.388 1494.695 -1260.525 Q 1495.096 -1261.662 1495.383 -1262.348 Q 1495.671 -1263.035 1497.124 -1267.821 Q 1498.578 -1272.606 1501.855 -1297.743 Q 1505.132 -1322.879 1506.929 -1335.708 Q 1508.727 -1348.538 1509.418 -1353.955 Q 1510.109 -1359.371 1510.081 -1362.188 Q 1510.053 -1365.005 1511.046 -1372.143 Q 1513.485 -1373.001 1515.660 -1357.165 Q 1517.836 -1341.329 1518.839 -1330.131 Q 1519.841 -1318.932 1520.271 -1313.661 Q 1520.700 -1308.389 1522.041 -1300.859 Q 1523.382 -1293.330 1524.682 -1288.347 Q 1525.981 -1283.363 1528.942 -1274.795 Q 1531.903 -1266.228 1533.586 -1261.687 Q 1535.269 -1257.146 1536.137 -1255.258 Q 1537.006 -1253.370 1538.303 -1250.773 Q 1539.601 -1248.176 1543.181 -1246.933 Q 1543.644 -1247.435 1545.072 -1251.255 "></path>
    <path id="STROKE_aeccdf2f-7f08-4051-be72-33038a1d21cd" opacity="1.000" fill="none" stroke="#ffffff" stroke-width="17.466" stroke-opacity="1.000" stroke-linecap="round" stroke-linejoin="round" d="M 1580.332 -1261.905 Q 1579.070 -1261.859 1576.040 -1262.106 Q 1573.011 -1262.353 1571.304 -1262.209 Q 1569.598 -1262.066 1568.838 -1261.774 Q 1568.078 -1261.483 1567.697 -1260.164 Q 1567.317 -1258.846 1570.604 -1258.305 Q 1573.891 -1257.765 1577.514 -1257.658 Q 1581.137 -1257.552 1586.593 -1258.437 Q 1592.049 -1259.322 1597.070 -1261.265 Q 1602.091 -1263.208 1605.170 -1264.812 Q 1608.249 -1266.415 1611.059 -1268.476 Q 1613.869 -1270.538 1615.613 -1273.050 Q 1617.357 -1275.562 1618.264 -1277.633 Q 1619.171 -1279.704 1619.398 -1283.505 Q 1619.625 -1287.305 1619.124 -1290.609 Q 1618.623 -1293.912 1617.065 -1296.870 Q 1615.506 -1299.828 1613.210 -1302.594 Q 1610.914 -1305.359 1607.902 -1306.925 Q 1604.890 -1308.491 1603.192 -1309.088 Q 1601.493 -1309.685 1598.318 -1310.118 Q 1595.144 -1310.551 1591.405 -1309.629 Q 1587.667 -1308.707 1583.553 -1306.063 Q 1579.438 -1303.418 1576.338 -1300.166 Q 1573.238 -1296.914 1571.249 -1293.772 Q 1569.260 -1290.629 1567.317 -1285.420 Q 1565.374 -1280.210 1564.373 -1276.646 Q 1563.372 -1273.081 1562.973 -1268.307 Q 1562.574 -1263.533 1562.415 -1258.071 Q 1562.256 -1252.608 1563.384 -1247.391 Q 1564.513 -1242.175 1565.400 -1239.346 Q 1566.287 -1236.517 1567.072 -1234.718 Q 1567.856 -1232.920 1569.522 -1230.121 Q 1571.188 -1227.322 1573.603 -1224.779 Q 1576.019 -1222.236 1579.014 -1220.513 Q 1582.009 -1218.791 1586.447 -1218.281 Q 1590.884 -1217.771 1594.683 -1217.751 Q 1598.482 -1217.732 1603.489 -1220.241 Q 1608.495 -1222.751 1615.434 -1227.966 Q 1622.372 -1233.181 1630.328 -1238.676 "></path>
    <path id="STROKE_cb1bab17-f7bd-4167-ab45-018b00019f1d" opacity="1.000" fill="none" stroke="#ffffff" stroke-width="17.486" stroke-opacity="1.000" stroke-linecap="round" stroke-linejoin="round" d="M 1661.885 -1394.947 Q 1661.533 -1395.403 1658.374 -1397.957 Q 1658.212 -1398.271 1658.300 -1358.860 Q 1658.387 -1319.450 1658.411 -1298.777 Q 1658.435 -1278.104 1658.387 -1269.326 Q 1658.340 -1260.549 1658.112 -1256.797 Q 1657.885 -1253.045 1657.749 -1249.862 Q 1657.614 -1246.679 1657.530 -1243.148 Q 1657.445 -1239.616 1657.451 -1237.594 Q 1657.457 -1235.572 1658.135 -1234.057 Q 1658.812 -1232.542 1661.479 -1234.563 Q 1664.145 -1236.584 1667.131 -1241.146 "></path>
    <path id="STROKE_dd25dba4-0bf2-48e4-a071-01e68826a7f0" opacity="1.000" fill="none" stroke="#ffffff" stroke-width="18.595" stroke-opacity="1.000" stroke-linecap="round" stroke-linejoin="round" d="M 1718.208 -1292.850 Q 1717.861 -1293.467 1714.428 -1299.795 Q 1714.406 -1298.930 1714.560 -1292.103 Q 1714.714 -1285.275 1714.682 -1275.264 Q 1714.650 -1265.252 1714.604 -1260.116 Q 1714.559 -1254.979 1714.709 -1252.006 Q 1714.859 -1249.032 1715.383 -1247.268 Q 1715.906 -1245.504 1716.732 -1244.618 Q 1717.558 -1243.732 1718.234 -1243.500 Q 1718.910 -1243.267 1719.927 -1243.375 Q 1720.944 -1243.484 1722.606 -1247.010 "></path>
    <path id="STROKE_def46693-f48e-45a1-8381-d94c78abc327" opacity="1.000" fill="none" stroke="#ffffff" stroke-width="14.647" stroke-opacity="1.000" stroke-linecap="round" stroke-linejoin="round" d="M 1723.609 -1337.609 Q 1723.428 -1338.178 1721.944 -1340.191 Q 1720.461 -1342.205 1719.443 -1345.635 Q 1719.368 -1346.194 1733.099 -1335.217 "></path>
    <path id="STROKE_a60cb4a6-3b0c-4f51-b7d8-99d9ea9f2ea3" opacity="1.000" fill="none" stroke="#ffffff" stroke-width="20.578" stroke-opacity="1.000" stroke-linecap="round" stroke-linejoin="round" d="M 1769.748 -1392.014 Q 1769.276 -1392.687 1765.080 -1394.252 Q 1764.007 -1394.098 1763.931 -1372.222 Q 1763.855 -1350.346 1763.938 -1337.081 Q 1764.021 -1323.816 1764.390 -1317.608 Q 1764.758 -1311.401 1765.030 -1307.105 Q 1765.301 -1302.809 1765.729 -1297.371 Q 1766.157 -1291.932 1766.458 -1287.431 Q 1766.759 -1282.930 1768.070 -1273.232 Q 1769.380 -1263.535 1770.393 -1257.134 Q 1771.407 -1250.733 1773.991 -1246.007 Q 1774.879 -1245.783 1776.846 -1251.101 "></path>
    <path id="STROKE_4676f705-22ce-4a90-b1c4-c2e630e65269" opacity="1.000" fill="none" stroke="#ffffff" stroke-width="19.013" stroke-opacity="1.000" stroke-linecap="round" stroke-linejoin="round" d="M 1766.276 -1363.307 Q 1766.248 -1363.352 1765.459 -1368.054 Q 1764.670 -1372.756 1764.537 -1376.028 Q 1764.403 -1379.301 1764.949 -1382.204 Q 1765.495 -1385.107 1768.137 -1388.460 Q 1770.779 -1391.813 1774.042 -1394.269 Q 1777.306 -1396.725 1781.021 -1398.180 Q 1784.737 -1399.635 1789.182 -1399.856 Q 1793.628 -1400.077 1796.520 -1400.048 Q 1799.412 -1400.019 1802.903 -1398.319 Q 1806.393 -1396.619 1810.034 -1393.293 Q 1813.675 -1389.967 1816.435 -1385.839 Q 1819.196 -1381.712 1820.764 -1378.085 Q 1822.332 -1374.459 1823.240 -1370.515 Q 1824.149 -1366.571 1824.226 -1362.501 Q 1824.303 -1358.432 1824.435 -1355.380 Q 1824.567 -1352.328 1821.558 -1347.828 Q 1818.549 -1343.329 1815.707 -1340.317 Q 1812.865 -1337.306 1811.113 -1335.602 Q 1809.361 -1333.897 1803.290 -1328.333 Q 1797.219 -1322.769 1791.271 -1318.180 Q 1785.322 -1313.591 1777.232 -1309.596 L 1777.193 -1309.673 Q 1777.927 -1310.445 1778.621 -1311.139 "></path>
    <path id="STROKE_b9db2e1d-1171-4f9c-91f2-35532ac152f7" opacity="1.000" fill="none" stroke="#ffffff" stroke-width="18.782" stroke-opacity="1.000" stroke-linecap="round" stroke-linejoin="round" d="M 1847.289 -1393.944 Q 1847.135 -1394.329 1846.055 -1396.336 Q 1845.888 -1396.428 1846.814 -1389.020 Q 1847.740 -1381.612 1847.678 -1355.282 Q 1847.615 -1328.952 1847.590 -1315.296 Q 1847.565 -1301.640 1847.710 -1295.751 Q 1847.855 -1289.862 1848.265 -1282.762 Q 1848.676 -1275.662 1849.045 -1269.344 Q 1849.414 -1263.025 1849.726 -1254.973 Q 1850.038 -1246.920 1850.282 -1241.295 Q 1850.527 -1235.669 1851.127 -1232.861 Q 1851.728 -1230.052 1852.058 -1228.391 Q 1852.389 -1226.730 1853.415 -1226.277 Q 1854.441 -1225.823 1856.085 -1227.023 "></path>
    <path id="STROKE_e6d765c8-f408-407f-a2d1-b2aa47995de8" opacity="1.000" fill="none" stroke="#ffffff" stroke-width="15.089" stroke-opacity="1.000" stroke-linecap="round" stroke-linejoin="round" d="M 1891.190 -1307.744 Q 1890.793 -1308.544 1889.798 -1310.700 Q 1888.802 -1312.856 1885.982 -1313.879 Q 1884.713 -1313.359 1884.261 -1303.455 Q 1883.809 -1293.552 1884.090 -1286.461 Q 1884.372 -1279.371 1885.362 -1274.708 Q 1886.352 -1270.045 1887.322 -1266.416 Q 1888.292 -1262.787 1890.116 -1257.848 Q 1891.941 -1252.909 1893.916 -1249.457 Q 1895.890 -1246.005 1898.561 -1242.576 Q 1901.233 -1239.146 1903.364 -1237.175 Q 1905.495 -1235.203 1907.765 -1234.225 Q 1910.036 -1233.246 1912.542 -1233.158 Q 1915.049 -1233.070 1917.840 -1234.068 Q 1920.631 -1235.066 1923.366 -1237.735 Q 1926.101 -1240.404 1929.369 -1246.216 Q 1932.637 -1252.028 1935.991 -1262.882 Q 1939.345 -1273.736 1940.927 -1279.784 Q 1942.509 -1285.833 1943.479 -1290.072 Q 1944.449 -1294.310 1945.060 -1296.761 Q 1945.671 -1299.212 1946.937 -1305.117 Q 1948.202 -1311.023 1948.633 -1318.509 Q 1947.458 -1318.473 1946.865 -1316.779 Q 1946.272 -1315.086 1945.750 -1313.610 Q 1945.229 -1312.135 1944.763 -1309.857 Q 1944.298 -1307.579 1944.019 -1304.447 Q 1943.740 -1301.314 1943.582 -1293.606 Q 1943.424 -1285.897 1943.937 -1277.538 Q 1944.450 -1269.178 1945.715 -1263.139 Q 1946.979 -1257.099 1947.656 -1254.087 Q 1948.332 -1251.074 1949.397 -1248.795 Q 1950.461 -1246.517 1952.235 -1245.045 Q 1954.009 -1243.573 1956.741 -1243.032 Q 1959.473 -1242.492 1962.749 -1242.990 Q 1966.024 -1243.487 1973.515 -1249.866 "></path>
    <path id="STROKE_b11ce0ce-c661-4ffb-baaf-7ca026d6f072" opacity="1.000" fill="none" stroke="#ffffff" stroke-width="16.680" stroke-opacity="1.000" stroke-linecap="round" stroke-linejoin="round" d="M 2026.212 -1301.493 Q 2025.697 -1302.363 2024.527 -1304.664 Q 2023.357 -1306.966 2021.471 -1308.955 Q 2019.585 -1310.945 2016.445 -1311.612 Q 2013.304 -1312.278 2010.762 -1311.862 Q 2008.220 -1311.445 2006.609 -1310.885 Q 2004.998 -1310.324 2002.259 -1307.878 Q 1999.521 -1305.431 1997.487 -1302.419 Q 1995.454 -1299.406 1994.294 -1296.046 Q 1993.135 -1292.687 1992.820 -1290.744 Q 1992.505 -1288.801 1992.321 -1285.667 Q 1992.136 -1282.533 1992.349 -1279.853 Q 1992.563 -1277.172 1994.313 -1275.225 Q 1996.063 -1273.278 1998.814 -1271.933 Q 2001.564 -1270.587 2004.945 -1270.280 Q 2008.325 -1269.973 2012.179 -1270.906 Q 2016.034 -1271.839 2019.234 -1273.458 Q 2022.433 -1275.077 2024.103 -1276.046 Q 2025.774 -1277.015 2027.697 -1279.336 Q 2029.620 -1281.656 2030.996 -1283.209 Q 2032.371 -1284.763 2033.144 -1287.706 Q 2033.917 -1290.648 2033.945 -1292.025 Q 2033.973 -1293.401 2034.000 -1294.459 Q 2034.026 -1295.518 2033.763 -1295.766 Q 2033.500 -1296.015 2032.847 -1295.937 Q 2032.168 -1296.545 2031.480 -1281.351 Q 2030.792 -1266.158 2030.809 -1257.837 Q 2030.826 -1249.516 2030.033 -1242.971 Q 2029.241 -1236.426 2028.694 -1232.867 Q 2028.147 -1229.308 2026.555 -1224.818 Q 2024.962 -1220.328 2023.176 -1217.406 Q 2021.390 -1214.485 2019.595 -1212.291 Q 2017.801 -1210.097 2014.533 -1209.045 Q 2011.265 -1207.992 2007.951 -1207.995 Q 2004.637 -1207.999 2003.066 -1208.161 Q 2001.495 -1208.324 1998.880 -1209.549 Q 1996.265 -1210.774 1994.180 -1212.369 Q 1992.095 -1213.963 1990.402 -1216.249 Q 1988.709 -1218.535 1988.292 -1220.764 Q 1987.876 -1222.993 1987.842 -1224.410 Q 1987.809 -1225.826 1988.392 -1227.611 Q 1988.975 -1229.395 1992.929 -1232.598 Q 1996.884 -1235.802 1999.930 -1237.531 Q 2002.976 -1239.259 2006.006 -1240.461 Q 2009.036 -1241.663 2011.502 -1242.478 Q 2013.968 -1243.293 2019.407 -1244.675 Q 2024.846 -1246.057 2031.822 -1247.032 Q 2038.798 -1248.006 2050.328 -1246.935 Q 2061.858 -1245.865 2069.736 -1245.238 Q 2077.614 -1244.612 2083.924 -1242.998 "></path>
  </g>
</svg>