<?xml version="1.0" encoding="UTF-8" standalone="yes"?>
<svg xmlns="http://www.w3.org/2000/svg" xmlns:xlink="http://www.w3.org/1999/xlink" width="677.960pt" height="240.612pt" version="1.1" viewBox="619.499 -1443.867 677.960 240.612">
  <!--
	Exported with Concepts: Smarter Sketching
	Version: 4569 on iOS 26.0
	https://concepts.app/
	-->
  <title>7C7C83B4-DDF4-4E8B-881D-EE85629F1D1B</title>
  <desc>Drawing exported from Concepts: Smarter Sketching</desc>
  <defs></defs>
  <g id="New_Layer_1" opacity="1.000">
    <path id="STROKE_34810cf3-ab59-4f56-a303-c8e79822b93d" opacity="1.000" fill="none" stroke="#ffffff" stroke-width="15.123" stroke-opacity="1.000" stroke-linecap="round" stroke-linejoin="round" d="M 637.698 -1273.982 Q 638.051 -1274.066 636.927 -1273.712 Q 635.803 -1273.358 633.113 -1273.554 Q 630.849 -1274.640 636.673 -1293.389 Q 642.496 -1312.137 648.346 -1334.373 Q 654.197 -1356.608 657.212 -1369.341 Q 660.228 -1382.075 662.467 -1391.074 Q 664.706 -1400.073 666.972 -1407.244 Q 669.238 -1414.416 674.872 -1422.093 Q 677.555 -1421.727 679.620 -1396.548 Q 681.685 -1371.369 683.133 -1354.940 Q 684.580 -1338.512 685.716 -1331.001 Q 686.851 -1323.491 687.611 -1319.790 Q 688.371 -1316.090 688.683 -1314.362 Q 688.995 -1312.635 690.691 -1305.948 Q 692.387 -1299.262 694.468 -1294.385 Q 696.549 -1289.509 698.474 -1286.818 Q 700.399 -1284.127 703.109 -1282.667 Q 705.818 -1281.208 707.941 -1291.706 Q 710.063 -1302.203 711.201 -1311.445 Q 712.338 -1320.686 713.973 -1339.552 Q 715.608 -1358.419 716.853 -1370.543 Q 718.097 -1382.667 719.366 -1389.180 Q 720.636 -1395.694 721.666 -1399.282 Q 722.697 -1402.871 725.740 -1404.298 Q 725.570 -1404.922 728.430 -1398.940 Q 731.289 -1392.959 733.249 -1378.509 Q 735.209 -1364.060 736.247 -1344.142 Q 737.284 -1324.225 737.669 -1314.164 Q 738.053 -1304.104 738.564 -1298.160 Q 739.074 -1292.217 740.861 -1286.958 Q 742.648 -1281.698 743.843 -1277.875 Q 745.038 -1274.053 752.031 -1271.292 "></path>
    <path id="STROKE_74fed301-309c-4bca-8741-5e19d320ccb1" opacity="1.000" fill="none" stroke="#ffffff" stroke-width="17.771" stroke-opacity="1.000" stroke-linecap="round" stroke-linejoin="round" d="M 794.706 -1290.615 Q 793.194 -1290.133 781.867 -1287.619 Q 781.816 -1287.023 787.179 -1286.124 Q 792.541 -1285.226 799.768 -1287.164 Q 806.994 -1289.102 812.944 -1291.767 Q 818.893 -1294.432 822.590 -1297.608 Q 826.286 -1300.785 827.991 -1302.840 Q 829.697 -1304.895 831.010 -1307.969 Q 832.323 -1311.042 832.321 -1314.331 Q 832.318 -1317.619 831.918 -1319.784 Q 831.519 -1321.949 829.143 -1324.757 Q 826.768 -1327.565 822.808 -1330.799 Q 818.847 -1334.033 815.563 -1335.768 Q 812.278 -1337.502 807.365 -1338.013 Q 802.452 -1338.523 799.579 -1338.979 Q 796.706 -1339.434 792.588 -1336.754 Q 788.471 -1334.074 786.311 -1331.619 Q 784.152 -1329.164 782.377 -1327.279 Q 780.602 -1325.394 777.684 -1319.179 Q 774.765 -1312.964 773.169 -1304.136 Q 771.574 -1295.307 771.466 -1288.564 Q 771.357 -1281.821 772.441 -1276.851 Q 773.525 -1271.881 776.222 -1267.338 Q 778.918 -1262.794 782.650 -1259.594 Q 786.382 -1256.394 793.484 -1254.397 Q 800.585 -1252.399 806.767 -1252.105 Q 812.948 -1251.812 816.501 -1252.268 Q 820.054 -1252.724 825.491 -1254.805 Q 830.929 -1256.886 837.654 -1262.178 Q 844.379 -1267.471 852.912 -1278.385 "></path>
    <path id="STROKE_5f015f92-b030-4e38-b8e8-abb295ad4d39" opacity="1.000" fill="none" stroke="#ffffff" stroke-width="19.022" stroke-opacity="1.000" stroke-linecap="round" stroke-linejoin="round" d="M 882.382 -1417.935 Q 882.382 -1416.986 882.382 -1419.647 Q 881.898 -1419.997 883.587 -1412.949 Q 885.276 -1405.902 885.486 -1386.307 Q 885.697 -1366.711 885.509 -1356.182 Q 885.320 -1345.652 885.012 -1340.953 Q 884.703 -1336.253 883.898 -1325.914 Q 883.093 -1315.575 882.821 -1302.800 Q 882.548 -1290.024 882.404 -1283.694 Q 882.260 -1277.364 882.638 -1272.272 Q 883.016 -1267.179 884.003 -1262.624 Q 884.991 -1258.068 890.941 -1251.111 "></path>
    <path id="STROKE_0aac8e07-206f-4234-a12b-2f65d4adc817" opacity="1.000" fill="none" stroke="#ffffff" stroke-width="20.992" stroke-opacity="1.000" stroke-linecap="round" stroke-linejoin="round" d="M 936.552 -1324.616 Q 935.846 -1325.167 934.616 -1325.935 Q 933.385 -1326.702 931.844 -1327.185 Q 931.770 -1326.776 931.820 -1315.756 Q 931.869 -1304.735 931.764 -1295.122 Q 931.659 -1285.509 931.827 -1278.569 Q 931.995 -1271.628 932.505 -1268.381 Q 933.016 -1265.135 933.491 -1263.571 Q 933.967 -1262.006 934.253 -1261.327 Q 934.539 -1260.647 936.796 -1260.528 "></path>
    <path id="STROKE_c0ff8b3d-de9e-4424-b19a-cab64690b53c" opacity="1.000" fill="none" stroke="#ffffff" stroke-width="20.540" stroke-opacity="1.000" stroke-linecap="round" stroke-linejoin="round" d="M 921.389 -1363.509 Q 921.057 -1363.999 919.494 -1367.973 Q 921.276 -1372.149 954.160 -1349.444 "></path>
    <path id="STROKE_18afbfcd-40f6-43e6-a502-c750391dd002" opacity="1.000" fill="none" stroke="#ffffff" stroke-width="19.150" stroke-opacity="1.000" stroke-linecap="round" stroke-linejoin="round" d="M 987.543 -1402.892 Q 987.359 -1403.442 986.198 -1406.194 Q 985.739 -1405.865 985.219 -1374.504 Q 984.699 -1343.143 985.156 -1321.447 Q 985.614 -1299.750 985.611 -1289.661 Q 985.609 -1279.572 985.526 -1275.025 Q 985.442 -1270.479 985.359 -1267.973 Q 985.276 -1265.467 985.323 -1264.346 Q 985.369 -1263.225 985.709 -1262.485 "></path>
    <path id="STROKE_7e92212f-f09d-4429-a9d7-a83440c6cff2" opacity="1.000" fill="none" stroke="#ffffff" stroke-width="18.986" stroke-opacity="1.000" stroke-linecap="round" stroke-linejoin="round" d="M 988.032 -1400.201 Q 987.877 -1401.438 988.093 -1405.525 Q 988.310 -1409.612 988.869 -1412.119 Q 989.427 -1414.626 990.845 -1416.452 Q 992.263 -1418.277 997.458 -1418.785 Q 1002.653 -1419.292 1006.707 -1419.317 Q 1010.760 -1419.343 1014.574 -1417.736 Q 1018.388 -1416.129 1022.079 -1412.490 Q 1025.771 -1408.851 1028.329 -1404.316 Q 1030.887 -1399.781 1031.348 -1393.319 Q 1031.809 -1386.856 1031.774 -1383.092 Q 1031.740 -1379.327 1030.470 -1375.061 Q 1029.199 -1370.795 1023.960 -1363.953 Q 1018.722 -1357.111 1013.106 -1351.921 Q 1007.490 -1346.730 1003.435 -1343.727 Q 999.380 -1340.723 996.542 -1338.635 Q 993.704 -1336.548 984.302 -1331.710 Q 984.364 -1331.832 984.486 -1331.955 "></path>
    <path id="STROKE_dcc58aef-7297-4037-8c1e-2ea38bc8760c" opacity="1.000" fill="none" stroke="#ffffff" stroke-width="20.021" stroke-opacity="1.000" stroke-linecap="round" stroke-linejoin="round" d="M 1070.572 -1417.813 Q 1070.477 -1417.959 1068.615 -1424.050 Q 1068.570 -1422.959 1068.751 -1408.069 Q 1068.931 -1393.180 1069.021 -1383.443 Q 1069.111 -1373.706 1069.108 -1356.361 Q 1069.104 -1339.016 1069.081 -1328.022 Q 1069.057 -1317.028 1069.399 -1310.449 Q 1069.740 -1303.870 1067.331 -1262.547 Q 1068.525 -1262.323 1070.938 -1263.586 "></path>
    <path id="STROKE_6ab21bb2-1e90-440e-a4a3-53fb7b9166ee" opacity="1.000" fill="none" stroke="#ffffff" stroke-width="13.618" stroke-opacity="1.000" stroke-linecap="round" stroke-linejoin="round" d="M 1119.973 -1335.991 Q 1120.070 -1337.548 1115.999 -1343.573 Q 1113.457 -1342.845 1112.353 -1325.885 Q 1111.250 -1308.924 1111.451 -1299.596 Q 1111.651 -1290.267 1111.679 -1285.831 Q 1111.706 -1281.395 1113.173 -1276.588 Q 1114.640 -1271.781 1116.147 -1268.802 Q 1117.654 -1265.821 1120.070 -1263.833 Q 1122.485 -1261.846 1125.544 -1261.610 Q 1128.603 -1261.374 1130.832 -1261.914 Q 1133.060 -1262.454 1134.650 -1263.601 Q 1136.241 -1264.747 1140.022 -1270.055 Q 1143.803 -1275.364 1147.649 -1283.412 Q 1151.495 -1291.461 1156.163 -1308.776 Q 1160.831 -1326.090 1164.666 -1342.717 L 1164.789 -1342.717 Q 1165.479 -1341.811 1164.638 -1333.343 Q 1163.797 -1324.875 1162.642 -1311.922 Q 1161.487 -1298.969 1161.342 -1291.236 Q 1161.198 -1283.503 1161.305 -1279.764 Q 1161.412 -1276.025 1162.529 -1273.903 Q 1163.646 -1271.780 1164.504 -1270.769 Q 1165.362 -1269.757 1167.901 -1268.740 Q 1170.441 -1267.722 1174.582 -1269.118 Q 1178.723 -1270.513 1184.781 -1275.450 "></path>
    <path id="STROKE_e5052a9c-976a-4c79-a261-adbadce6ccf3" opacity="1.000" fill="none" stroke="#ffffff" stroke-width="15.640" stroke-opacity="1.000" stroke-linecap="round" stroke-linejoin="round" d="M 1239.563 -1325.228 Q 1239.659 -1326.567 1238.804 -1329.054 Q 1237.950 -1331.541 1235.379 -1333.199 Q 1232.808 -1334.857 1229.643 -1335.338 Q 1226.479 -1335.818 1221.993 -1335.219 Q 1217.508 -1334.621 1213.763 -1330.970 Q 1210.019 -1327.319 1207.615 -1323.557 Q 1205.212 -1319.795 1204.186 -1314.715 Q 1203.161 -1309.635 1202.995 -1306.217 Q 1202.829 -1302.799 1204.415 -1300.232 Q 1206.001 -1297.664 1207.938 -1296.141 Q 1209.874 -1294.617 1213.804 -1292.958 Q 1217.734 -1291.300 1222.127 -1291.170 Q 1226.520 -1291.040 1230.283 -1291.568 Q 1234.047 -1292.097 1237.754 -1294.282 Q 1241.460 -1296.467 1244.926 -1300.374 Q 1248.392 -1304.282 1250.135 -1311.051 Q 1251.878 -1317.821 1251.302 -1327.307 L 1251.241 -1327.307 Q 1250.825 -1329.070 1251.101 -1314.956 Q 1251.376 -1300.842 1251.021 -1289.842 Q 1250.665 -1278.843 1249.201 -1270.237 Q 1247.737 -1261.631 1245.221 -1253.802 Q 1242.706 -1245.974 1240.642 -1242.000 Q 1238.579 -1238.026 1236.254 -1234.624 Q 1233.929 -1231.222 1231.116 -1228.320 Q 1228.303 -1225.417 1224.145 -1224.876 Q 1219.986 -1224.334 1217.410 -1224.170 Q 1214.833 -1224.007 1212.038 -1226.253 Q 1209.243 -1228.498 1207.686 -1230.866 Q 1206.128 -1233.235 1204.961 -1236.299 Q 1203.794 -1239.363 1203.469 -1244.082 Q 1203.144 -1248.800 1203.601 -1252.490 Q 1204.058 -1256.180 1205.522 -1258.685 Q 1206.986 -1261.189 1210.366 -1264.169 Q 1213.746 -1267.150 1222.824 -1268.629 Q 1231.901 -1270.108 1240.466 -1270.130 Q 1249.031 -1270.151 1256.649 -1268.643 Q 1264.267 -1267.135 1269.127 -1265.884 Q 1273.988 -1264.632 1278.326 -1262.608 "></path>
  </g>
</svg>