<?xml version="1.0" encoding="UTF-8" standalone="yes"?>
<svg xmlns="http://www.w3.org/2000/svg" xmlns:xlink="http://www.w3.org/1999/xlink" width="709.024pt" height="236.571pt" version="1.1" viewBox="1419.310 -917.393 709.024 236.571">
  <!--
	Exported with Concepts: Smarter Sketching
	Version: 4569 on iOS 26.0
	https://concepts.app/
	-->
  <title>7C7C83B4-DDF4-4E8B-881D-EE85629F1D1B</title>
  <desc>Drawing exported from Concepts: Smarter Sketching</desc>
  <defs></defs>
  <g id="New_Layer_1" opacity="1.000">
    <path id="STROKE_201cb71c-0e92-4fcc-a3cb-4e639cbe6765" opacity="1.000" fill="none" stroke="#ffffff" stroke-width="16.804" stroke-opacity="1.000" stroke-linecap="round" stroke-linejoin="round" d="M 1444.178 -750.271 Q 1444.112 -749.810 1441.401 -747.262 Q 1441.896 -747.941 1444.427 -754.709 Q 1446.958 -761.477 1449.943 -770.198 Q 1452.928 -778.919 1454.418 -783.272 Q 1455.908 -787.626 1457.998 -793.915 Q 1460.088 -800.203 1462.488 -807.992 Q 1464.888 -815.781 1467.041 -823.640 Q 1469.194 -831.499 1470.390 -835.985 Q 1471.586 -840.471 1472.469 -843.857 Q 1473.352 -847.243 1473.867 -849.170 Q 1474.383 -851.097 1481.406 -878.761 Q 1483.104 -879.536 1485.926 -870.149 Q 1488.749 -860.761 1490.542 -848.774 Q 1492.335 -836.787 1493.585 -823.083 Q 1494.836 -809.379 1496.217 -799.283 Q 1497.597 -789.186 1498.671 -784.237 Q 1499.745 -779.289 1500.991 -774.607 Q 1502.236 -769.924 1503.552 -766.197 Q 1504.868 -762.469 1506.403 -759.997 Q 1507.937 -757.525 1509.302 -756.189 Q 1510.667 -754.853 1511.824 -754.824 Q 1512.981 -754.794 1514.702 -758.135 Q 1516.423 -761.476 1518.186 -766.165 Q 1519.948 -770.854 1522.438 -779.306 Q 1524.927 -787.759 1527.185 -798.727 Q 1529.443 -809.695 1530.528 -818.428 Q 1531.614 -827.161 1532.843 -837.854 Q 1534.071 -848.547 1534.917 -855.137 Q 1535.762 -861.727 1537.883 -870.272 Q 1538.342 -870.574 1538.852 -857.782 Q 1539.362 -844.990 1539.415 -838.169 Q 1539.468 -831.348 1539.497 -823.721 Q 1539.526 -816.094 1539.518 -808.788 Q 1539.510 -801.482 1539.353 -793.445 Q 1539.196 -785.408 1539.934 -778.178 Q 1540.672 -770.947 1541.736 -766.488 Q 1542.801 -762.029 1543.887 -759.096 Q 1544.973 -756.164 1546.322 -753.532 Q 1547.670 -750.900 1548.709 -749.357 Q 1549.748 -747.814 1550.807 -747.015 Q 1551.865 -746.216 1553.276 -745.487 "></path>
    <path id="STROKE_c319b64d-f973-47e8-866a-df60c7f57929" opacity="1.000" fill="none" stroke="#ffffff" stroke-width="14.874" stroke-opacity="1.000" stroke-linecap="round" stroke-linejoin="round" d="M 1587.224 -760.921 Q 1585.902 -760.932 1585.233 -760.964 Q 1584.563 -760.995 1579.084 -760.651 Q 1578.535 -760.440 1579.753 -759.577 Q 1580.970 -758.715 1584.120 -757.542 Q 1587.270 -756.370 1590.950 -755.807 Q 1594.630 -755.244 1599.641 -755.347 Q 1604.651 -755.451 1608.067 -755.664 Q 1611.484 -755.876 1617.519 -757.968 Q 1623.554 -760.060 1627.765 -762.026 Q 1631.975 -763.991 1635.655 -766.206 Q 1639.335 -768.420 1641.111 -770.162 Q 1642.887 -771.903 1644.480 -773.965 Q 1646.074 -776.027 1646.799 -778.234 Q 1647.524 -780.440 1647.722 -783.221 Q 1647.919 -786.001 1646.131 -789.350 Q 1644.343 -792.700 1641.708 -795.504 Q 1639.073 -798.307 1635.980 -800.461 Q 1632.887 -802.615 1628.585 -803.690 Q 1624.283 -804.765 1621.525 -804.922 Q 1618.768 -805.080 1615.780 -804.639 Q 1612.793 -804.199 1608.608 -801.151 Q 1604.423 -798.103 1601.797 -795.682 Q 1599.172 -793.261 1596.389 -789.331 Q 1593.606 -785.401 1591.265 -780.423 Q 1588.925 -775.444 1587.439 -769.793 Q 1585.954 -764.143 1585.879 -758.505 Q 1585.804 -752.868 1586.052 -749.387 Q 1586.301 -745.905 1587.820 -741.882 Q 1589.339 -737.859 1590.768 -735.198 Q 1592.197 -732.538 1595.182 -729.157 Q 1598.166 -725.776 1601.569 -723.302 Q 1604.972 -720.827 1608.734 -719.728 Q 1612.496 -718.628 1615.958 -718.512 Q 1619.420 -718.396 1621.619 -718.968 Q 1623.817 -719.541 1625.112 -720.056 Q 1626.406 -720.572 1629.851 -722.718 Q 1633.296 -724.864 1636.738 -727.182 Q 1640.180 -729.500 1645.168 -732.136 "></path>
    <path id="STROKE_e31bd45d-7ef9-4784-9107-96d6acfdc1e9" opacity="1.000" fill="none" stroke="#ffffff" stroke-width="20.497" stroke-opacity="1.000" stroke-linecap="round" stroke-linejoin="round" d="M 1692.541 -875.982 Q 1692.348 -876.137 1690.844 -876.523 Q 1690.245 -875.842 1690.768 -867.389 Q 1691.290 -858.936 1691.537 -846.158 Q 1691.785 -833.380 1691.771 -826.948 Q 1691.757 -820.517 1691.786 -817.525 Q 1691.816 -814.533 1692.191 -796.503 Q 1692.566 -778.472 1692.722 -768.972 Q 1692.879 -759.473 1692.913 -751.052 Q 1692.948 -742.631 1693.096 -738.150 Q 1693.245 -733.670 1693.499 -731.199 Q 1693.752 -728.729 1694.387 -726.756 Q 1695.021 -724.783 1696.298 -724.038 Q 1697.574 -723.293 1702.340 -728.123 "></path>
    <path id="STROKE_125c408d-6dc5-406c-83c7-918a5960a945" opacity="1.000" fill="none" stroke="#ffffff" stroke-width="18.753" stroke-opacity="1.000" stroke-linecap="round" stroke-linejoin="round" d="M 1746.936 -795.339 Q 1746.621 -796.116 1745.354 -797.963 Q 1745.299 -798.006 1745.261 -790.603 Q 1745.223 -783.200 1744.329 -773.481 Q 1743.435 -763.762 1743.378 -758.354 Q 1743.321 -752.947 1743.188 -750.358 Q 1743.055 -747.770 1743.530 -746.397 Q 1744.005 -745.024 1744.495 -744.319 Q 1744.985 -743.615 1745.779 -743.646 Q 1746.574 -743.678 1747.064 -744.254 Q 1747.555 -744.830 1748.093 -746.413 "></path>
    <path id="STROKE_24135109-d45f-415b-82d6-791568e33dc6" opacity="1.000" fill="none" stroke="#ffffff" stroke-width="20.497" stroke-opacity="1.000" stroke-linecap="round" stroke-linejoin="round" d="M 1734.359 -833.075 Q 1734.683 -833.101 1733.512 -833.029 Q 1732.341 -832.957 1731.119 -833.886 Q 1730.911 -833.920 1734.116 -834.061 Q 1737.321 -834.203 1740.968 -833.423 Q 1744.615 -832.644 1748.406 -830.989 Q 1752.196 -829.334 1759.744 -825.127 "></path>
    <path id="STROKE_e85b24b3-e2b2-44af-a55d-a6bb4f57de50" opacity="1.000" fill="none" stroke="#ffffff" stroke-width="20.341" stroke-opacity="1.000" stroke-linecap="round" stroke-linejoin="round" d="M 1797.318 -886.864 Q 1797.264 -886.620 1795.779 -886.807 Q 1794.295 -886.995 1793.353 -885.214 Q 1792.411 -883.433 1792.097 -878.251 Q 1791.784 -873.068 1791.531 -866.520 Q 1791.277 -859.971 1791.124 -856.888 Q 1790.972 -853.805 1790.802 -850.427 Q 1790.633 -847.048 1790.338 -841.064 Q 1790.043 -835.080 1789.913 -827.962 Q 1789.783 -820.844 1789.805 -809.023 Q 1789.828 -797.202 1789.774 -791.070 Q 1789.720 -784.938 1789.776 -774.627 Q 1789.833 -764.316 1790.323 -756.558 Q 1790.813 -748.800 1791.250 -743.779 Q 1791.687 -738.757 1792.223 -736.450 Q 1792.759 -734.143 1793.013 -733.006 Q 1793.268 -731.869 1794.500 -731.515 Q 1795.731 -731.161 1798.784 -739.776 "></path>
    <path id="STROKE_678840b0-2ea5-406e-8ed4-036f8117f6b6" opacity="1.000" fill="none" stroke="#ffffff" stroke-width="20.266" stroke-opacity="1.000" stroke-linecap="round" stroke-linejoin="round" d="M 1792.457 -870.272 Q 1791.250 -870.800 1789.511 -872.176 Q 1787.771 -873.552 1786.642 -875.300 Q 1785.512 -877.047 1785.423 -878.897 Q 1785.334 -880.746 1785.455 -881.965 Q 1785.577 -883.185 1788.113 -885.216 Q 1790.650 -887.247 1794.794 -889.144 Q 1798.938 -891.041 1802.859 -891.937 Q 1806.780 -892.832 1811.053 -893.108 Q 1815.325 -893.384 1818.765 -893.347 Q 1822.204 -893.311 1826.230 -891.793 Q 1830.257 -890.275 1833.066 -888.454 Q 1835.876 -886.634 1838.657 -883.553 Q 1841.438 -880.471 1843.534 -876.447 Q 1845.631 -872.423 1846.969 -868.067 Q 1848.308 -863.711 1848.558 -858.454 Q 1848.809 -853.196 1848.695 -849.678 Q 1848.582 -846.159 1847.324 -842.282 Q 1846.065 -838.406 1844.606 -835.551 Q 1843.147 -832.697 1838.812 -827.813 Q 1834.476 -822.930 1831.081 -819.881 Q 1827.687 -816.833 1823.472 -813.793 Q 1819.257 -810.753 1815.958 -808.733 Q 1812.660 -806.712 1808.791 -805.593 Q 1804.921 -804.475 1801.854 -804.137 Q 1798.787 -803.800 1796.199 -804.329 Q 1796.084 -805.024 1796.778 -806.915 "></path>
    <path id="STROKE_ffe0a91d-19a0-4c85-b300-04d5b54a1a2b" opacity="1.000" fill="none" stroke="#ffffff" stroke-width="19.683" stroke-opacity="1.000" stroke-linecap="round" stroke-linejoin="round" d="M 1879.411 -893.269 Q 1879.411 -893.770 1878.408 -897.822 Q 1879.063 -898.128 1879.914 -885.160 Q 1880.766 -872.191 1880.771 -861.962 Q 1880.776 -851.733 1880.789 -846.547 Q 1880.801 -841.361 1880.812 -834.210 Q 1880.824 -827.058 1881.840 -811.043 Q 1882.857 -795.029 1883.373 -781.542 Q 1883.890 -768.055 1883.801 -761.877 Q 1883.713 -755.700 1883.809 -748.186 Q 1883.905 -740.671 1883.723 -736.417 Q 1883.541 -732.162 1884.697 -729.088 Q 1884.637 -728.686 1885.652 -729.452 Q 1886.667 -730.217 1888.824 -734.683 "></path>
    <path id="STROKE_a43c88e0-0505-42eb-af54-8dffa10eed0d" opacity="1.000" fill="none" stroke="#ffffff" stroke-width="13.294" stroke-opacity="1.000" stroke-linecap="round" stroke-linejoin="round" d="M 1928.328 -807.300 Q 1928.025 -807.550 1926.777 -808.518 Q 1925.528 -809.485 1924.706 -809.872 Q 1923.884 -810.260 1922.508 -810.398 Q 1921.132 -810.537 1919.829 -804.704 Q 1918.525 -798.871 1917.971 -791.320 Q 1917.417 -783.769 1917.327 -779.410 Q 1917.238 -775.051 1917.314 -770.327 Q 1917.390 -765.602 1917.755 -762.259 Q 1918.121 -758.915 1918.918 -754.320 Q 1919.715 -749.724 1921.468 -745.051 Q 1923.221 -740.378 1925.167 -737.248 Q 1927.113 -734.117 1929.400 -731.946 Q 1931.686 -729.775 1934.264 -728.810 Q 1936.841 -727.845 1940.166 -727.747 Q 1943.490 -727.649 1945.967 -728.326 Q 1948.444 -729.003 1950.749 -730.681 Q 1953.053 -732.359 1956.192 -735.862 Q 1959.330 -739.365 1962.797 -746.647 Q 1966.265 -753.929 1968.142 -759.083 Q 1970.019 -764.238 1972.487 -775.015 Q 1974.956 -785.792 1978.054 -812.934 L 1978.093 -812.934 Q 1978.274 -812.906 1976.776 -805.170 Q 1975.278 -797.434 1974.802 -787.149 Q 1974.327 -776.864 1974.262 -769.130 Q 1974.197 -761.397 1974.278 -757.239 Q 1974.360 -753.081 1975.064 -749.944 Q 1975.767 -746.806 1976.561 -745.030 Q 1977.354 -743.253 1978.125 -742.408 Q 1978.896 -741.563 1980.687 -741.257 Q 1982.477 -740.950 1985.032 -742.204 Q 1987.587 -743.457 1993.987 -750.194 "></path>
    <path id="STROKE_00496dbf-e065-4e54-bdfb-35f79ab8b189" opacity="1.000" fill="none" stroke="#ffffff" stroke-width="17.289" stroke-opacity="1.000" stroke-linecap="round" stroke-linejoin="round" d="M 2055.789 -787.699 Q 2055.615 -788.512 2053.857 -791.308 Q 2052.099 -794.103 2049.818 -796.237 Q 2047.537 -798.370 2045.016 -799.366 Q 2042.494 -800.361 2040.511 -800.465 Q 2038.527 -800.570 2036.222 -800.408 Q 2033.917 -800.246 2031.337 -799.120 Q 2028.757 -797.994 2026.226 -796.339 Q 2023.695 -794.685 2021.431 -791.449 Q 2019.167 -788.212 2018.018 -784.428 Q 2016.869 -780.644 2016.705 -777.809 Q 2016.541 -774.974 2016.873 -772.566 Q 2017.205 -770.158 2018.665 -767.796 Q 2020.124 -765.435 2022.502 -763.534 Q 2024.881 -761.632 2029.230 -760.963 Q 2033.579 -760.294 2036.806 -760.413 Q 2040.034 -760.532 2042.572 -761.384 Q 2045.109 -762.236 2046.931 -763.149 Q 2048.752 -764.062 2051.088 -765.560 Q 2053.424 -767.057 2055.417 -768.821 Q 2057.411 -770.585 2058.878 -773.109 Q 2060.346 -775.633 2061.062 -778.126 Q 2061.780 -780.619 2061.679 -784.072 Q 2061.578 -787.525 2058.952 -790.786 Q 2059.345 -790.672 2058.548 -775.721 Q 2057.752 -760.771 2057.270 -750.712 Q 2056.788 -740.653 2056.526 -736.132 Q 2056.264 -731.612 2055.935 -729.287 Q 2055.606 -726.963 2054.963 -723.721 Q 2054.320 -720.478 2053.034 -717.032 Q 2051.748 -713.586 2050.278 -711.450 Q 2048.809 -709.315 2047.779 -708.139 Q 2046.749 -706.964 2044.850 -705.352 Q 2042.950 -703.740 2040.445 -702.736 Q 2037.940 -701.732 2034.483 -701.464 Q 2031.027 -701.196 2028.109 -701.568 Q 2025.191 -701.940 2023.996 -702.442 Q 2022.801 -702.944 2020.224 -704.451 Q 2017.647 -705.958 2016.120 -708.052 Q 2014.594 -710.146 2013.945 -711.828 Q 2013.296 -713.509 2013.139 -716.000 Q 2012.982 -718.490 2014.459 -721.057 Q 2015.936 -723.623 2019.197 -726.139 Q 2022.459 -728.655 2025.336 -730.684 Q 2028.213 -732.712 2035.859 -735.437 Q 2043.504 -738.161 2048.213 -739.361 Q 2052.922 -740.561 2055.781 -741.200 Q 2058.641 -741.840 2065.256 -742.683 Q 2071.871 -743.525 2076.754 -743.828 Q 2081.637 -744.131 2087.952 -744.313 Q 2094.267 -744.495 2099.051 -744.268 Q 2103.834 -744.041 2109.720 -742.400 "></path>
  </g>
</svg>