<?xml version="1.0" encoding="UTF-8" standalone="yes"?>
<svg xmlns="http://www.w3.org/2000/svg" xmlns:xlink="http://www.w3.org/1999/xlink" width="697.477pt" height="235.463pt" version="1.1" viewBox="615.684 -1181.209 697.477 235.463">
  <!--
	Exported with Concepts: Smarter Sketching
	Version: 4569 on iOS 26.0
	https://concepts.app/
	-->
  <title>7C7C83B4-DDF4-4E8B-881D-EE85629F1D1B</title>
  <desc>Drawing exported from Concepts: Smarter Sketching</desc>
  <defs></defs>
  <g id="New_Layer_1" opacity="1.000">
    <path id="STROKE_35ab5aff-9cf1-4a93-82e4-25578dd8f928" opacity="1.000" fill="none" stroke="#ffffff" stroke-width="16.035" stroke-opacity="1.000" stroke-linecap="round" stroke-linejoin="round" d="M 637.604 -1026.784 Q 636.226 -1026.331 633.267 -1024.886 Q 632.751 -1025.382 635.137 -1032.127 Q 637.522 -1038.871 640.145 -1045.109 Q 642.769 -1051.347 644.158 -1054.532 Q 645.548 -1057.718 648.083 -1064.387 Q 650.618 -1071.057 652.414 -1079.444 Q 654.211 -1087.832 655.934 -1097.452 Q 657.657 -1107.073 659.583 -1115.620 Q 661.509 -1124.167 662.361 -1128.369 Q 663.214 -1132.572 663.843 -1135.771 Q 664.472 -1138.969 665.313 -1143.108 Q 666.154 -1147.246 667.197 -1151.032 Q 668.240 -1154.819 669.962 -1157.935 Q 671.621 -1157.000 671.373 -1157.236 Q 671.125 -1157.472 672.188 -1155.457 Q 673.251 -1153.441 674.111 -1150.798 Q 674.971 -1148.154 676.631 -1140.461 Q 678.292 -1132.767 678.930 -1124.598 Q 679.568 -1116.429 679.628 -1111.959 Q 679.688 -1107.488 679.687 -1105.387 Q 679.686 -1103.285 679.684 -1100.833 Q 679.682 -1098.382 679.682 -1093.084 Q 679.682 -1087.786 679.718 -1081.653 Q 679.754 -1075.520 679.585 -1071.526 Q 679.416 -1067.532 681.247 -1056.933 Q 683.078 -1046.335 684.019 -1040.735 Q 684.959 -1035.135 685.717 -1031.299 Q 686.475 -1027.464 687.716 -1024.683 Q 688.028 -1024.810 687.995 -1024.504 Q 687.962 -1024.197 688.618 -1025.080 Q 689.274 -1025.963 689.638 -1027.267 Q 690.002 -1028.571 690.137 -1029.071 Q 690.273 -1029.571 690.649 -1031.309 Q 691.025 -1033.048 691.464 -1035.220 Q 691.902 -1037.392 693.236 -1046.569 Q 694.570 -1055.746 695.630 -1062.855 Q 696.690 -1069.965 697.485 -1074.352 Q 698.281 -1078.739 698.777 -1081.631 Q 699.274 -1084.523 700.776 -1091.070 Q 702.279 -1097.617 703.963 -1104.552 Q 705.647 -1111.487 706.506 -1115.131 Q 707.366 -1118.776 708.510 -1123.943 Q 709.655 -1129.109 710.479 -1132.581 Q 711.304 -1136.053 713.263 -1138.212 Q 713.725 -1138.156 715.795 -1133.375 Q 717.864 -1128.595 719.077 -1120.047 Q 720.291 -1111.500 720.631 -1104.751 Q 720.972 -1098.003 720.994 -1093.320 Q 721.015 -1088.637 721.099 -1079.777 Q 721.183 -1070.916 721.731 -1063.666 Q 722.278 -1056.416 723.523 -1050.820 Q 724.768 -1045.224 725.826 -1042.469 Q 726.884 -1039.714 728.609 -1034.602 Q 730.334 -1029.490 731.857 -1023.182 Q 733.380 -1016.874 734.172 -1013.726 Q 734.965 -1010.577 735.571 -1009.088 Q 736.177 -1007.598 736.864 -1006.999 Q 737.552 -1006.401 739.319 -1007.535 "></path>
    <path id="STROKE_4cdd6e77-28df-4123-9fa6-c2e895ed0f39" opacity="1.000" fill="none" stroke="#ffffff" stroke-width="16.824" stroke-opacity="1.000" stroke-linecap="round" stroke-linejoin="round" d="M 779.301 -1027.258 Q 777.927 -1026.747 769.271 -1026.919 Q 769.769 -1026.489 773.344 -1024.907 Q 776.919 -1023.324 782.807 -1023.010 Q 788.695 -1022.697 792.227 -1022.675 Q 795.759 -1022.653 800.582 -1023.689 Q 805.405 -1024.725 810.240 -1026.515 Q 815.075 -1028.306 818.491 -1030.369 Q 821.907 -1032.431 823.770 -1034.106 Q 825.632 -1035.781 826.955 -1037.880 Q 828.278 -1039.978 828.600 -1042.829 Q 828.921 -1045.680 828.616 -1048.521 Q 828.311 -1051.363 826.035 -1054.951 Q 823.760 -1058.540 821.300 -1061.175 Q 818.840 -1063.810 816.290 -1065.358 Q 813.740 -1066.906 810.956 -1067.591 Q 808.171 -1068.275 805.944 -1068.364 Q 803.718 -1068.452 800.660 -1067.184 Q 797.603 -1065.916 794.180 -1063.515 Q 790.757 -1061.113 788.047 -1057.793 Q 785.336 -1054.472 783.931 -1052.462 Q 782.526 -1050.452 780.884 -1047.758 Q 779.242 -1045.065 776.902 -1040.832 Q 774.563 -1036.600 773.188 -1031.708 Q 771.813 -1026.815 771.334 -1023.470 Q 770.854 -1020.125 770.751 -1015.065 Q 770.649 -1010.005 770.921 -1006.397 Q 771.194 -1002.790 772.587 -998.988 Q 773.979 -995.186 776.171 -992.408 Q 778.362 -989.631 779.972 -988.016 Q 781.581 -986.400 784.925 -985.066 Q 788.268 -983.733 792.578 -983.675 Q 796.887 -983.618 799.875 -983.524 Q 802.864 -983.431 809.273 -986.687 Q 815.683 -989.943 822.334 -994.475 Q 828.985 -999.007 836.426 -1005.908 "></path>
    <path id="STROKE_48752a56-39c2-479d-8b91-b674d5d3085b" opacity="1.000" fill="none" stroke="#ffffff" stroke-width="20.518" stroke-opacity="1.000" stroke-linecap="round" stroke-linejoin="round" d="M 886.166 -1134.213 Q 886.009 -1135.859 884.336 -1154.479 Q 884.234 -1154.238 884.943 -1149.104 Q 885.652 -1143.970 885.743 -1130.865 Q 885.835 -1117.760 885.720 -1111.426 Q 885.604 -1105.092 885.431 -1101.534 Q 885.258 -1097.976 884.102 -1084.006 Q 882.946 -1070.036 881.747 -1057.953 Q 880.548 -1045.871 879.920 -1038.245 Q 879.293 -1030.619 879.170 -1027.050 Q 879.048 -1023.480 879.037 -1019.895 Q 879.027 -1016.309 878.995 -1013.684 Q 878.962 -1011.059 879.302 -1009.834 Q 879.641 -1008.608 880.340 -1008.143 Q 881.038 -1007.677 883.184 -1007.941 "></path>
    <path id="STROKE_005223ab-ce88-4636-9818-b5e3ac8a5f8b" opacity="1.000" fill="none" stroke="#ffffff" stroke-width="18.503" stroke-opacity="1.000" stroke-linecap="round" stroke-linejoin="round" d="M 930.281 -1101.340 Q 930.273 -1101.236 923.166 -1101.543 Q 922.666 -1100.387 928.106 -1098.658 Q 933.545 -1096.929 937.810 -1095.588 Q 942.074 -1094.247 945.935 -1090.767 "></path>
    <path id="STROKE_4e791d33-9434-4d11-87b8-33db0fb943ee" opacity="1.000" fill="none" stroke="#ffffff" stroke-width="20.324" stroke-opacity="1.000" stroke-linecap="round" stroke-linejoin="round" d="M 930.213 -1060.402 Q 930.440 -1060.345 929.147 -1060.471 Q 927.854 -1060.598 927.220 -1060.337 Q 926.586 -1060.075 926.219 -1059.519 Q 925.852 -1058.963 925.796 -1057.782 Q 925.739 -1056.600 925.724 -1053.992 Q 925.708 -1051.385 925.853 -1047.874 Q 925.998 -1044.364 926.059 -1041.387 Q 926.120 -1038.410 926.708 -1029.980 Q 927.296 -1021.550 927.807 -1016.218 Q 928.318 -1010.886 928.534 -1008.246 Q 928.750 -1005.607 928.898 -1003.352 Q 929.047 -1001.097 929.433 -997.666 Q 929.820 -994.235 930.691 -991.486 Q 931.562 -988.737 935.024 -986.794 "></path>
    <path id="STROKE_22fb9cd1-bcd7-4ebb-86ff-e252edd63815" opacity="1.000" fill="none" stroke="#ffffff" stroke-width="20.128" stroke-opacity="1.000" stroke-linecap="round" stroke-linejoin="round" d="M 977.988 -1160.850 Q 977.581 -1161.021 975.141 -1161.290 Q 974.702 -1160.780 975.484 -1144.393 Q 976.266 -1128.006 976.679 -1118.405 Q 977.091 -1108.803 977.266 -1104.404 Q 977.442 -1100.005 977.609 -1097.225 Q 977.776 -1094.445 977.764 -1092.785 Q 977.753 -1091.125 978.688 -1078.580 Q 979.623 -1066.035 980.669 -1049.021 Q 981.716 -1032.008 981.877 -1023.662 Q 982.037 -1015.316 982.367 -1011.413 Q 982.697 -1007.509 982.875 -1005.705 Q 983.054 -1003.900 983.300 -1003.001 Q 983.545 -1002.103 983.968 -1001.345 Q 984.391 -1000.587 985.215 -1000.734 Q 986.040 -1000.882 986.676 -1002.103 Q 987.313 -1003.323 987.563 -1003.992 Q 987.814 -1004.660 988.321 -1006.434 Q 988.829 -1008.208 989.372 -1010.381 "></path>
    <path id="STROKE_82a98bf2-4126-4144-953f-fd4f73d3e2fa" opacity="1.000" fill="none" stroke="#ffffff" stroke-width="19.734" stroke-opacity="1.000" stroke-linecap="round" stroke-linejoin="round" d="M 979.546 -1140.313 Q 979.267 -1140.630 977.878 -1143.180 Q 976.488 -1145.730 976.274 -1148.134 Q 976.061 -1150.538 976.302 -1152.394 Q 976.543 -1154.250 978.804 -1156.124 Q 981.065 -1157.998 984.354 -1158.789 Q 987.644 -1159.580 991.013 -1159.604 Q 994.381 -1159.627 998.339 -1158.259 Q 1002.297 -1156.891 1005.710 -1154.775 Q 1009.123 -1152.659 1012.271 -1149.548 Q 1015.419 -1146.437 1017.796 -1142.639 Q 1020.173 -1138.842 1021.543 -1136.604 Q 1022.914 -1134.367 1023.818 -1131.036 Q 1024.721 -1127.704 1024.533 -1123.632 Q 1024.344 -1119.560 1023.790 -1116.681 Q 1023.237 -1113.802 1019.399 -1105.902 Q 1015.562 -1098.001 1011.915 -1091.775 Q 1008.268 -1085.549 1004.980 -1081.302 Q 1001.691 -1077.056 999.675 -1074.390 Q 997.658 -1071.723 981.511 -1059.724 Q 982.019 -1059.961 982.528 -1060.199 "></path>
    <path id="STROKE_ffddc4dc-b33f-4bc8-9427-b27f0296fd8a" opacity="1.000" fill="none" stroke="#ffffff" stroke-width="20.515" stroke-opacity="1.000" stroke-linecap="round" stroke-linejoin="round" d="M 1058.560 -1155.224 Q 1058.594 -1155.224 1058.628 -1155.224 Q 1058.505 -1154.847 1057.868 -1144.472 Q 1057.231 -1134.096 1057.057 -1124.302 Q 1056.884 -1114.507 1056.872 -1109.829 Q 1056.859 -1105.151 1056.847 -1102.864 Q 1056.836 -1100.577 1056.819 -1098.110 Q 1056.802 -1095.642 1057.477 -1083.073 Q 1058.152 -1070.504 1058.293 -1059.789 Q 1058.434 -1049.074 1058.707 -1041.190 Q 1058.980 -1033.307 1059.746 -1026.359 Q 1060.511 -1019.411 1060.865 -1016.343 Q 1061.219 -1013.276 1061.295 -1011.543 Q 1061.370 -1009.810 1063.202 -1008.822 Q 1063.715 -1009.165 1064.049 -1009.636 "></path>
    <path id="STROKE_d2f3a4d0-1a66-4334-9f34-fa415c5c0dce" opacity="1.000" fill="none" stroke="#ffffff" stroke-width="15.903" stroke-opacity="1.000" stroke-linecap="round" stroke-linejoin="round" d="M 1107.961 -1086.768 Q 1107.636 -1087.274 1106.552 -1088.001 Q 1105.468 -1088.729 1104.552 -1089.142 Q 1103.635 -1089.555 1102.905 -1088.854 Q 1102.175 -1088.154 1101.684 -1086.923 Q 1101.193 -1085.691 1100.322 -1079.745 Q 1099.450 -1073.799 1099.365 -1068.631 Q 1099.280 -1063.463 1099.293 -1059.178 Q 1099.306 -1054.893 1099.297 -1051.209 Q 1099.289 -1047.525 1099.542 -1043.001 Q 1099.795 -1038.477 1100.296 -1033.988 Q 1100.798 -1029.498 1101.623 -1025.653 Q 1102.448 -1021.807 1103.863 -1018.666 Q 1105.278 -1015.525 1106.860 -1013.391 Q 1108.443 -1011.257 1110.353 -1009.884 Q 1112.262 -1008.510 1115.284 -1008.067 Q 1118.305 -1007.624 1120.638 -1007.874 Q 1122.971 -1008.125 1125.966 -1009.649 Q 1128.961 -1011.173 1132.323 -1013.733 Q 1135.685 -1016.293 1137.527 -1018.081 Q 1139.369 -1019.868 1142.334 -1023.730 Q 1145.300 -1027.591 1148.304 -1038.920 Q 1151.308 -1050.249 1152.592 -1056.183 Q 1153.877 -1062.116 1154.452 -1065.292 Q 1155.027 -1068.468 1155.747 -1072.391 Q 1156.467 -1076.315 1157.565 -1083.311 Q 1157.304 -1083.180 1155.292 -1077.497 Q 1153.279 -1071.814 1152.353 -1062.619 Q 1151.426 -1053.424 1151.514 -1047.737 Q 1151.602 -1042.050 1151.593 -1039.326 Q 1151.585 -1036.602 1152.601 -1032.373 Q 1153.617 -1028.144 1154.226 -1025.811 Q 1154.834 -1023.479 1155.879 -1021.328 Q 1156.923 -1019.178 1158.137 -1018.112 Q 1159.351 -1017.045 1159.972 -1016.780 Q 1160.592 -1016.515 1161.982 -1016.219 Q 1163.372 -1015.922 1164.928 -1016.578 Q 1166.483 -1017.234 1167.405 -1018.172 Q 1168.327 -1019.110 1169.763 -1020.955 "></path>
    <path id="STROKE_a54de99c-0fb0-414b-ac80-b5d439230d12" opacity="1.000" fill="none" stroke="#ffffff" stroke-width="17.334" stroke-opacity="1.000" stroke-linecap="round" stroke-linejoin="round" d="M 1239.018 -1058.708 Q 1238.260 -1061.033 1236.493 -1063.398 Q 1234.725 -1065.763 1233.526 -1066.919 Q 1232.326 -1068.074 1230.131 -1068.757 Q 1227.935 -1069.441 1225.194 -1068.769 Q 1222.453 -1068.097 1220.648 -1066.990 Q 1218.842 -1065.882 1217.423 -1064.822 Q 1216.005 -1063.762 1214.280 -1061.766 Q 1212.555 -1059.770 1211.160 -1056.795 Q 1209.765 -1053.820 1209.316 -1050.942 Q 1208.866 -1048.063 1209.170 -1045.868 Q 1209.473 -1043.673 1210.646 -1042.138 Q 1211.819 -1040.604 1213.538 -1039.311 Q 1215.257 -1038.019 1218.348 -1037.889 Q 1221.439 -1037.758 1223.188 -1037.635 Q 1224.936 -1037.512 1228.568 -1039.413 Q 1232.200 -1041.314 1235.030 -1043.510 Q 1237.861 -1045.706 1240.018 -1049.011 Q 1242.174 -1052.316 1243.133 -1054.988 Q 1244.092 -1057.661 1244.304 -1060.944 Q 1243.433 -1061.018 1242.884 -1053.600 Q 1242.335 -1046.182 1241.635 -1035.901 Q 1240.935 -1025.620 1240.077 -1017.281 Q 1239.218 -1008.942 1238.005 -1001.953 Q 1236.792 -994.964 1235.323 -989.676 Q 1233.854 -984.389 1232.768 -981.439 Q 1231.682 -978.489 1230.270 -975.786 Q 1228.858 -973.084 1227.062 -971.219 Q 1225.265 -969.355 1223.823 -968.283 Q 1222.381 -967.211 1219.703 -966.881 Q 1217.025 -966.550 1213.870 -967.689 Q 1210.715 -968.828 1207.484 -971.044 Q 1204.252 -973.260 1202.396 -974.626 Q 1200.540 -975.992 1199.313 -977.538 Q 1198.086 -979.083 1197.698 -980.685 Q 1197.310 -982.286 1197.495 -983.837 Q 1197.681 -985.388 1200.946 -988.131 Q 1204.212 -990.875 1209.189 -993.513 Q 1214.166 -996.152 1218.116 -997.496 Q 1222.066 -998.840 1224.200 -999.587 Q 1226.335 -1000.335 1232.001 -1001.811 Q 1237.668 -1003.287 1244.647 -1003.914 Q 1251.627 -1004.542 1259.640 -1004.459 Q 1267.652 -1004.376 1272.660 -1004.208 Q 1277.667 -1004.040 1294.653 -1001.977 "></path>
  </g>
</svg>