<?xml version="1.0" encoding="UTF-8" standalone="yes"?>
<svg xmlns="http://www.w3.org/2000/svg" xmlns:xlink="http://www.w3.org/1999/xlink" width="700.465pt" height="230.295pt" version="1.1" viewBox="1430.027 -1158.540 700.465 230.295">
  <!--
	Exported with Concepts: Smarter Sketching
	Version: 4569 on iOS 26.0
	https://concepts.app/
	-->
  <title>7C7C83B4-DDF4-4E8B-881D-EE85629F1D1B</title>
  <desc>Drawing exported from Concepts: Smarter Sketching</desc>
  <defs></defs>
  <g id="New_Layer_1" opacity="1.000">
    <path id="STROKE_97763214-5481-4313-a8e4-e59b80abc4d1" opacity="1.000" fill="none" stroke="#ffffff" stroke-width="18.738" stroke-opacity="1.000" stroke-linecap="round" stroke-linejoin="round" d="M 1452.467 -991.375 Q 1451.873 -990.778 1450.383 -987.825 Q 1449.931 -988.766 1455.512 -1006.255 Q 1461.093 -1023.745 1465.457 -1036.953 Q 1469.820 -1050.161 1471.786 -1056.167 Q 1473.752 -1062.174 1474.689 -1064.839 Q 1475.627 -1067.504 1478.082 -1075.975 Q 1480.538 -1084.446 1482.397 -1090.444 Q 1484.257 -1096.442 1486.730 -1105.841 Q 1489.202 -1115.240 1490.771 -1120.863 Q 1492.339 -1126.486 1494.010 -1130.279 Q 1495.682 -1134.071 1497.795 -1137.073 Q 1498.735 -1136.916 1499.026 -1119.485 Q 1499.316 -1102.055 1499.624 -1089.156 Q 1499.932 -1076.257 1500.306 -1069.617 Q 1500.681 -1062.978 1501.890 -1054.548 Q 1503.100 -1046.117 1504.209 -1040.667 Q 1505.319 -1035.217 1505.847 -1032.168 Q 1506.375 -1029.120 1508.663 -1021.603 Q 1510.950 -1014.086 1512.263 -1009.836 Q 1513.576 -1005.587 1514.662 -1002.699 Q 1515.748 -999.811 1520.479 -995.002 Q 1521.104 -995.445 1522.709 -1011.237 Q 1524.314 -1027.028 1525.224 -1035.802 Q 1526.134 -1044.575 1527.162 -1053.529 Q 1528.190 -1062.483 1528.708 -1066.946 Q 1529.226 -1071.408 1530.047 -1078.456 Q 1530.868 -1085.504 1531.586 -1090.670 Q 1532.303 -1095.836 1533.171 -1100.427 Q 1534.038 -1105.019 1534.498 -1108.092 Q 1534.957 -1111.165 1537.106 -1115.852 Q 1540.120 -1116.270 1542.999 -1095.804 Q 1545.877 -1075.337 1546.844 -1064.471 Q 1547.811 -1053.604 1548.448 -1048.903 Q 1549.085 -1044.202 1549.655 -1041.315 Q 1550.226 -1038.428 1551.043 -1034.498 Q 1551.861 -1030.567 1553.541 -1025.814 Q 1555.222 -1021.061 1557.769 -1015.935 Q 1560.317 -1010.808 1561.994 -1006.129 Q 1563.670 -1001.451 1565.010 -997.260 Q 1566.349 -993.070 1567.086 -990.598 Q 1567.824 -988.126 1569.048 -986.745 Q 1569.303 -987.145 1569.820 -990.681 "></path>
    <path id="STROKE_ed9bdc1b-a496-4b28-9bb2-bd1b5fa39141" opacity="1.000" fill="none" stroke="#ffffff" stroke-width="20.149" stroke-opacity="1.000" stroke-linecap="round" stroke-linejoin="round" d="M 1600.450 -1004.108 Q 1599.513 -1003.975 1597.487 -1003.695 Q 1595.461 -1003.415 1594.049 -1002.560 Q 1592.637 -1001.706 1592.299 -1000.651 Q 1591.961 -999.597 1592.034 -998.959 Q 1592.108 -998.322 1592.489 -997.646 Q 1592.869 -996.970 1594.153 -996.048 Q 1595.438 -995.125 1599.363 -994.547 Q 1603.288 -993.969 1607.757 -994.378 Q 1612.226 -994.786 1615.542 -995.688 Q 1618.858 -996.589 1623.573 -999.021 Q 1628.289 -1001.453 1630.896 -1002.997 Q 1633.503 -1004.542 1636.668 -1007.391 Q 1639.834 -1010.239 1642.083 -1013.098 Q 1644.332 -1015.957 1645.386 -1018.621 Q 1646.440 -1021.286 1646.837 -1024.697 Q 1647.234 -1028.108 1646.437 -1032.240 Q 1645.640 -1036.372 1643.704 -1040.196 Q 1641.767 -1044.020 1640.168 -1046.250 Q 1638.569 -1048.481 1637.423 -1049.650 Q 1636.277 -1050.819 1635.462 -1051.461 Q 1634.647 -1052.103 1634.189 -1052.429 Q 1633.731 -1052.756 1632.458 -1053.354 Q 1631.187 -1053.952 1629.751 -1054.400 Q 1628.316 -1054.848 1626.938 -1054.911 Q 1625.561 -1054.974 1624.555 -1055.160 Q 1623.549 -1055.346 1620.725 -1054.609 Q 1617.901 -1053.871 1614.751 -1051.696 Q 1611.601 -1049.521 1609.332 -1046.971 Q 1607.063 -1044.422 1605.687 -1042.563 Q 1604.310 -1040.705 1602.275 -1037.232 Q 1600.240 -1033.760 1598.531 -1029.639 Q 1596.822 -1025.519 1596.113 -1021.892 Q 1595.404 -1018.266 1595.138 -1012.995 Q 1594.872 -1007.724 1595.160 -1002.802 Q 1595.448 -997.881 1597.596 -992.688 Q 1599.745 -987.495 1601.167 -984.869 Q 1602.589 -982.242 1604.015 -980.059 Q 1605.441 -977.877 1607.925 -975.777 Q 1610.408 -973.676 1613.339 -972.615 Q 1616.271 -971.553 1620.278 -970.960 Q 1624.285 -970.368 1629.806 -971.761 Q 1635.327 -973.154 1640.436 -975.392 Q 1645.545 -977.629 1662.638 -986.668 "></path>
    <path id="STROKE_5a18a2fb-f59c-4f46-b15d-f24df84aea8b" opacity="1.000" fill="none" stroke="#ffffff" stroke-width="20.001" stroke-opacity="1.000" stroke-linecap="round" stroke-linejoin="round" d="M 1700.752 -1129.125 Q 1700.905 -1129.798 1699.364 -1133.524 Q 1700.455 -1133.179 1700.721 -1112.251 Q 1700.987 -1091.323 1700.648 -1078.772 Q 1700.310 -1066.221 1700.122 -1060.584 Q 1699.933 -1054.947 1700.130 -1033.618 Q 1700.327 -1012.289 1700.445 -1001.384 Q 1700.564 -990.479 1700.583 -984.492 Q 1700.602 -978.504 1701.871 -972.468 Q 1701.976 -972.411 1703.110 -972.368 Q 1704.245 -972.325 1707.002 -975.015 "></path>
    <path id="STROKE_6a7ec158-5bc1-4fd0-810a-2dd69e2f36e6" opacity="1.000" fill="none" stroke="#ffffff" stroke-width="20.303" stroke-opacity="1.000" stroke-linecap="round" stroke-linejoin="round" d="M 1755.274 -1039.007 Q 1754.952 -1039.381 1753.846 -1040.720 Q 1752.741 -1042.059 1751.686 -1042.403 Q 1751.414 -1042.213 1751.484 -1028.044 Q 1751.553 -1013.876 1751.448 -1005.730 Q 1751.342 -997.585 1751.623 -992.916 Q 1751.903 -988.247 1752.353 -985.163 Q 1752.802 -982.079 1755.467 -978.506 Q 1755.853 -978.737 1756.046 -978.969 "></path>
    <path id="STROKE_e5717f96-e1b8-49b9-9bd1-43f30c62c7c7" opacity="1.000" fill="none" stroke="#ffffff" stroke-width="20.352" stroke-opacity="1.000" stroke-linecap="round" stroke-linejoin="round" d="M 1754.425 -1077.824 Q 1754.587 -1077.669 1753.932 -1078.260 Q 1753.278 -1078.850 1752.802 -1079.294 Q 1752.326 -1079.737 1752.171 -1079.889 Q 1752.016 -1080.040 1752.024 -1080.029 Q 1752.031 -1080.017 1752.191 -1080.051 Q 1752.350 -1080.085 1752.317 -1080.054 Q 1752.283 -1080.023 1752.302 -1080.048 Q 1752.321 -1080.072 1752.242 -1080.082 Q 1752.162 -1080.092 1752.923 -1079.865 Q 1753.684 -1079.637 1767.773 -1066.017 "></path>
    <path id="STROKE_23aeddfc-b55f-482d-b665-5ad81c520487" opacity="1.000" fill="none" stroke="#ffffff" stroke-width="19.239" stroke-opacity="1.000" stroke-linecap="round" stroke-linejoin="round" d="M 1814.452 -1131.304 Q 1813.699 -1133.117 1810.594 -1136.628 Q 1810.025 -1136.482 1810.096 -1115.926 Q 1810.168 -1095.370 1810.151 -1084.644 Q 1810.135 -1073.919 1810.040 -1068.916 Q 1809.945 -1063.913 1809.855 -1061.152 Q 1809.766 -1058.392 1809.546 -1053.669 Q 1809.326 -1048.947 1808.886 -1042.109 Q 1808.446 -1035.272 1807.893 -1024.852 Q 1807.340 -1014.431 1806.882 -1007.523 Q 1806.424 -1000.614 1806.852 -981.284 Q 1808.424 -980.276 1811.752 -987.457 "></path>
    <path id="STROKE_6a4e83d1-9924-4ea1-9913-187be039a028" opacity="1.000" fill="none" stroke="#ffffff" stroke-width="20.308" stroke-opacity="1.000" stroke-linecap="round" stroke-linejoin="round" d="M 1821.782 -1125.439 Q 1821.235 -1125.856 1818.403 -1127.992 Q 1815.571 -1130.127 1813.758 -1134.622 Q 1814.211 -1135.179 1817.845 -1135.609 Q 1821.479 -1136.040 1824.913 -1135.360 Q 1828.347 -1134.681 1830.769 -1133.478 Q 1833.190 -1132.275 1836.012 -1130.747 Q 1838.835 -1129.220 1842.488 -1126.209 Q 1846.141 -1123.198 1848.768 -1119.502 Q 1851.395 -1115.805 1852.733 -1112.394 Q 1854.071 -1108.983 1854.436 -1106.116 Q 1854.800 -1103.249 1854.192 -1100.278 Q 1853.583 -1097.306 1848.990 -1091.474 Q 1844.396 -1085.643 1837.208 -1079.619 Q 1830.021 -1073.595 1825.450 -1069.739 Q 1820.879 -1065.883 1808.820 -1059.535 Q 1809.244 -1059.612 1811.675 -1060.847 "></path>
    <path id="STROKE_66734e84-10cc-4b7f-a084-277388107fc4" opacity="1.000" fill="none" stroke="#ffffff" stroke-width="18.444" stroke-opacity="1.000" stroke-linecap="round" stroke-linejoin="round" d="M 1892.996 -1135.702 Q 1892.969 -1135.734 1892.561 -1136.084 Q 1892.151 -1136.434 1892.130 -1136.453 Q 1892.109 -1136.473 1891.942 -1136.589 Q 1891.775 -1136.706 1891.299 -1136.821 Q 1891.254 -1136.811 1891.309 -1129.098 Q 1891.364 -1121.384 1891.521 -1107.094 Q 1891.677 -1092.803 1891.699 -1078.499 Q 1891.720 -1064.194 1891.661 -1053.767 Q 1891.602 -1043.339 1891.520 -1037.856 Q 1891.438 -1032.373 1891.357 -1027.212 Q 1891.277 -1022.051 1891.281 -1012.787 Q 1891.286 -1003.522 1891.209 -998.651 Q 1891.132 -993.780 1891.289 -991.063 Q 1891.447 -988.346 1891.854 -986.448 Q 1892.262 -984.549 1895.851 -983.908 "></path>
    <path id="STROKE_42257060-b521-478d-b0c0-36df6b615ea9" opacity="1.000" fill="none" stroke="#ffffff" stroke-width="13.443" stroke-opacity="1.000" stroke-linecap="round" stroke-linejoin="round" d="M 1935.354 -1052.512 Q 1935.360 -1052.800 1934.771 -1054.607 Q 1934.181 -1056.414 1932.500 -1057.837 Q 1931.806 -1057.164 1930.944 -1046.116 Q 1930.083 -1035.069 1930.047 -1027.474 Q 1930.010 -1019.878 1930.710 -1013.585 Q 1931.410 -1007.291 1932.968 -1001.496 Q 1934.527 -995.700 1936.257 -991.674 Q 1937.986 -987.648 1939.497 -985.282 Q 1941.007 -982.917 1942.526 -981.504 Q 1944.045 -980.091 1946.394 -979.463 Q 1948.742 -978.835 1951.113 -978.778 Q 1953.483 -978.722 1956.450 -982.071 Q 1959.416 -985.421 1962.261 -990.515 Q 1965.106 -995.608 1968.051 -1002.725 Q 1970.995 -1009.841 1973.412 -1019.704 Q 1975.828 -1029.568 1976.825 -1036.349 Q 1977.822 -1043.130 1978.393 -1046.723 Q 1978.965 -1050.315 1980.220 -1052.667 Q 1980.598 -1052.011 1980.557 -1039.779 Q 1980.516 -1027.546 1980.320 -1020.939 Q 1980.125 -1014.333 1980.333 -1010.430 Q 1980.541 -1006.527 1981.160 -1003.554 Q 1981.779 -1000.580 1982.486 -998.681 Q 1983.194 -996.782 1984.691 -994.934 Q 1986.188 -993.086 1987.862 -992.056 Q 1989.536 -991.026 1991.883 -991.155 Q 1994.230 -991.285 1995.859 -991.484 Q 1997.488 -991.684 2002.248 -996.564 "></path>
    <path id="STROKE_9e56be13-f3eb-4136-b44d-eb1b54756b81" opacity="1.000" fill="none" stroke="#ffffff" stroke-width="14.967" stroke-opacity="1.000" stroke-linecap="round" stroke-linejoin="round" d="M 2060.886 -1033.528 Q 2061.714 -1035.028 2059.579 -1038.144 Q 2057.444 -1041.260 2055.866 -1043.029 Q 2054.289 -1044.798 2052.952 -1045.555 Q 2051.616 -1046.312 2049.744 -1046.444 Q 2047.872 -1046.576 2045.984 -1046.206 Q 2044.095 -1045.835 2041.375 -1043.588 Q 2038.655 -1041.340 2036.089 -1037.275 Q 2033.524 -1033.210 2032.151 -1029.177 Q 2030.777 -1025.144 2030.554 -1021.821 Q 2030.330 -1018.499 2030.608 -1016.316 Q 2030.885 -1014.134 2032.262 -1012.392 Q 2033.639 -1010.650 2036.917 -1009.974 Q 2040.196 -1009.297 2043.714 -1009.206 Q 2047.232 -1009.115 2051.127 -1010.889 Q 2055.022 -1012.664 2057.502 -1014.171 Q 2059.982 -1015.679 2062.621 -1018.211 Q 2065.260 -1020.742 2066.501 -1022.348 Q 2067.742 -1023.953 2068.423 -1025.004 Q 2069.103 -1026.054 2069.639 -1026.876 Q 2070.176 -1027.699 2070.729 -1028.792 Q 2071.281 -1029.885 2071.904 -1030.844 Q 2072.527 -1031.804 2073.308 -1035.612 Q 2073.201 -1035.256 2073.362 -1026.337 Q 2073.523 -1017.417 2073.114 -1009.008 Q 2072.705 -1000.599 2072.040 -994.910 Q 2071.375 -989.221 2070.717 -984.239 Q 2070.059 -979.256 2068.766 -973.022 Q 2067.472 -966.788 2066.189 -962.834 Q 2064.906 -958.880 2063.413 -956.333 Q 2061.920 -953.785 2060.627 -952.412 Q 2059.335 -951.039 2056.660 -950.356 Q 2053.985 -949.673 2051.553 -949.942 Q 2049.121 -950.210 2046.685 -952.618 Q 2044.250 -955.026 2042.661 -957.687 Q 2041.072 -960.348 2039.934 -963.328 Q 2038.797 -966.307 2038.248 -968.090 Q 2037.699 -969.872 2037.521 -972.995 Q 2037.344 -976.117 2037.423 -978.147 Q 2037.503 -980.178 2038.353 -981.477 Q 2039.202 -982.776 2041.954 -983.799 Q 2044.706 -984.821 2047.597 -985.210 Q 2050.488 -985.598 2058.191 -984.959 Q 2065.895 -984.321 2072.689 -983.015 Q 2079.484 -981.709 2085.031 -981.061 Q 2090.578 -980.413 2110.883 -976.654 "></path>
  </g>
</svg>